<?xml version="1.0" encoding="UTF-8"?>
<svg width="100pt" height="100pt" version="1.1" viewBox="0 0 100 100" xmlns="http://www.w3.org/2000/svg">
 <path d="m87.566 61.215c-2.7656-8.2539-11.754-9.4844-19.684-10.566-3.3242-0.45313-6.4648-0.88281-8.8203-1.7852-2.2383-0.85547-5.5156-4.0781-8.6875-7.1992-4.6055-4.5273-8.9531-8.8047-12.539-8.8047-0.66406 0-1.2891 0.14453-1.8516 0.42969-1.8438 0.9375-2.6055 2.4297-3.2773 3.7461-0.99609 1.9492-1.7812 3.4883-6.3516 3.4883-2.5898 0-5.9922-0.51172-10.406-1.5664-0.55469-0.13281-1.1367 0.09375-1.4531 0.57031-2.8828 4.3125-2.1914 11.617-1.6367 17.484 0.046875 0.49219 0.09375 0.97656 0.13281 1.4453 0.34766 3.8359-0.011719 6.7188-0.015626 6.7461-0.050781 0.39062 0.070313 0.78125 0.32813 1.0781 0.26172 0.29688 0.63281 0.46484 1.0273 0.46484h18.957c0.74609 0 1.3516-0.59766 1.3672-1.3438l0.054688-3.043c3.8789 1.1367 13.785 3.6562 27.133 4.2734 0.875 0.039063 1.8594 0.097657 2.9062 0.16016 2.7031 0.16016 5.7617 0.33984 8.7891 0.33984 5.5117 0 12.969-0.53516 14.059-5.1719 0.0625-0.24609 0.050782-0.50781-0.03125-0.74609zm-20.051-7.8594c7.1367 0.97656 14.504 1.9844 17.109 7.832-17.207 1.1992-32.691-0.16016-47.285-4.1484-7.9375-2.168-11.082-2.1914-21.887-1.6641-0.25781-2.8125-0.48047-5.8594-0.28516-8.5703 6.2852 1.9805 15.027 2.2266 19.406-0.62891 1.6211-1.0586 4.2422 0.25781 7.2773 1.7773 3.0859 1.5469 6.6914 3.3555 10.531 3.3555 1.3242 0 2.6797-0.21875 4.0469-0.73438 0.57031 0.35156 1.125 0.64062 1.6562 0.84375 2.6523 1.0117 5.9453 1.4609 9.4297 1.9375zm-51.211-11.504c4.1523 0.94531 7.4453 1.4062 10.047 1.4062 6.2461 0 7.6562-2.7617 8.7891-4.9805 0.57422-1.125 1.0273-2.0156 2.082-2.5508 0.17969-0.089843 0.37891-0.13281 0.61328-0.13281 0.85547 0 1.9609 0.53516 3.1875 1.3828l-2.168 2.6719c-0.47656 0.58594-0.38672 1.4492 0.19922 1.9219 0.25391 0.20703 0.55859 0.30469 0.85937 0.30469 0.39844 0 0.79297-0.17188 1.0625-0.50781l2.1992-2.7148c0.47656 0.40234 0.95703 0.83203 1.4414 1.2734l-1.8867 2.4844c-0.45703 0.60156-0.33984 1.4609 0.26172 1.9141 0.24609 0.1875 0.53906 0.27734 0.82422 0.27734 0.41406 0 0.82031-0.1875 1.0898-0.53906l1.7109-2.25c0.55859 0.53906 1.1094 1.0781 1.6406 1.6016l-1.0781 1.5977c-0.42188 0.625-0.25781 1.4766 0.36719 1.8984 0.23438 0.16016 0.5 0.23438 0.76562 0.23438 0.4375 0 0.87109-0.21094 1.1328-0.60156l0.80078-1.1836c1.7344 1.6836 3.4062 3.2266 4.9648 4.3789-4.5547 1.3086-8.9258-0.87891-12.836-2.8359-3.3594-1.6836-6.2578-3.1367-8.4414-1.7109-3.3945 2.2148-11.473 2.8203-18.648 0.42578 0.17969-1.4062 0.5-2.6953 1.0195-3.7656zm48.609 22.215c-1.0547-0.0625-2.0469-0.12109-2.9414-0.16016-16.594-0.76562-28.035-4.6445-28.148-4.6836-0.14453-0.050781-0.29688-0.074218-0.44531-0.074218-0.27734 0-0.55078 0.085937-0.78516 0.24609-0.35938 0.25-0.57422 0.65625-0.58203 1.0938l-0.066407 3.5234h-16.125c0.074219-1.3125 0.11719-3.3711-0.10156-5.8008-0.042969-0.47266-0.089844-0.96094-0.13672-1.457-0.007812-0.070312-0.011719-0.14062-0.019531-0.21094 10.824-0.53125 13.684-0.5 21.469 1.625 11.285 3.082 23.094 4.6094 35.805 4.6094 3.7344 0 7.5469-0.13281 11.445-0.39453-1.168 1.0664-4.0781 2.0156-10.738 2.0156-2.9492 0-5.9688-0.17578-8.6289-0.33203z"/>
</svg>
